<svg version="1.1" viewBox="0 0 100 100" xmlns="http://www.w3.org/2000/svg">
	<rect width="100" height="100" rx="20" ry="20" fill="#3ba435" fill-rule="evenodd"/>
	<path d="m7.6701 14.755c-1.32 1.6725-2.9254 3.148-3.9789 5.0061 2.8438 10.707 6.041 21.364 9.0316 32.049 2.7416 9.3474 5.3028 18.747 8.0535 28.091 1.8815 1.9816 4.4458 3.3698 6.6285 5.0766 2.4196 0.79364 5.1472 0.23201 7.7065 0.40065h56.351c2.0593-0.85885 4.577-3.6881 4.8467-5.928-5.5401-19.382-11.036-38.779-16.617-58.148-0.33136-2.4363-3.0304-3.2063-4.6704-4.679-1.4555-1.1041-2.945-2.3405-4.8903-1.9724-20.668 0.0057-41.338-0.01155-62.005 0.0086zm69.994 40.37c-3.5948-1.7367-6.8211-4.1245-10.342-6.0152-2.5334-2.7913-4.4618-6.152-6.7894-9.1448-3.458-2.4761-7.3211-4.4904-10.969-6.7259-4.4615-3.1966-9.3182 2.5074-8.5298 6.7594 1.489 3.6297 5.7076 4.5704 8.7264 6.5836 2.5847 1.3791 5.091 3.3083 8.1776 3.028 2.7928 0.4446 5.7089 0.42753 8.4681 1.0285 3.9309 2.3585 8.1168 4.2978 11.916 6.8465 1.3857 4.4393 2.7737 8.9413 3.8123 13.465-1.2034 2.7211-3.5512 4.127-6.4247 3.5946-13.489-0.0069-26.978 0.01359-40.467-0.01021-2.7124-1.3328-5.9409-3.0889-6.2387-6.4472-2.1774-7.5231-4.2775-15.071-6.4734-22.588 0.36927-1.2146 3.1408 1.3408 4.5086 1.9532 2.6808 1.9132 6.2111 2.8827 7.8136 5.9842 1.8464 2.3964 3.3426 5.1236 5.4917 7.2363 3.9449 2.2081 7.6635 4.8782 11.767 6.7565 3.5755 1.1852 5.9567-2.3501 7.0267-5.3057 0.83605-4.0106-3.5835-5.7964-6.4077-7.3774-2.6407-1.3698-5.1434-3.1552-7.931-4.1271-3.6188-0.49325-7.312-0.61365-10.881-1.1776-4.0011-2.3843-8.2383-4.3364-12.119-6.9066-1.4326-4.3953-2.6341-8.9074-3.8747-13.371 1.2123-1.5282 2.2934-4.1792 4.6621-3.6795h41.892c2.2266 0.50245 4.1316 2.3165 5.8544 3.7827 2.46 8.6124 5.0312 17.211 7.3303 25.857z" fill="#f9f9f9" /></svg>
