<svg viewBox="0 0 100 100" xmlns="http://www.w3.org/2000/svg">
    <g transform="translate(0 -197)">
        <rect y="197" width="100" height="100" rx="20" ry="20" fill="#0031c6" fill-rule="evenodd"/>
        <path d="M87.615 290.5l-45.404-49.473s-5.44.53-10.318-1.932c-4.877-2.462-12.735-10.711-16.306-15.188-3.572-4.478-6.063-10.449-6.063-10.449l2.944-6.127 6.33-2.465s5.76 2.95 9.945 6.859c4.185 3.91 11.796 12.387 13.87 17.441 2.075 5.055 1.122 10.438 1.122 10.438l45.78 49.124.354.336c-.353-.336-1.914 1.756-1.914 1.756z" fill="#f9f9f9"/>
        <path d="M11.734 290.5l45.404-49.473s5.44.53 10.318-1.932c4.877-2.462 12.735-10.711 16.306-15.188 3.572-4.478 6.063-10.449 6.063-10.449l-2.944-6.127-6.33-2.465s-5.76 2.95-9.945 6.859c-4.185 3.91-11.796 12.387-13.87 17.441-2.075 5.055-1.122 10.438-1.122 10.438l-45.78 49.124-.354.336c.353-.336 1.914 1.756 1.914 1.756z" fill="#f9f9f9"/>
    </g>
</svg>
