<svg version="1.1" viewBox="0 0 100 100" xmlns="http://www.w3.org/2000/svg">
	<path d="m4.2961 11.945c-1.4252 1.8058-3.1585 3.3989-4.2961 5.4052 3.0705 11.561 6.5226 23.067 9.7515 34.604 2.9601 10.093 5.7255 20.241 8.6954 30.33 2.0315 2.1396 4.8002 3.6384 7.1569 5.4813 2.6125 0.8569 5.5575 0.2505 8.3208 0.43259h60.842c2.2234-0.92731 4.9419-3.9821 5.233-6.4006-5.9817-20.926-11.916-41.871-17.941-62.783-0.35777-2.6305-3.272-3.4619-5.0426-5.052-1.5715-1.1922-3.1797-2.5271-5.2801-2.1296-22.316 0.0062-44.633-0.01247-66.947 0.0093zm75.574 43.588c-3.8814-1.8751-7.3648-4.4532-11.167-6.4947-2.7353-3.0138-4.8175-6.6424-7.3306-9.8737-3.7336-2.6734-7.9046-4.8483-11.843-7.2621-4.8172-3.4514-10.061 2.7073-9.2097 7.2982 1.6076 3.919 6.1626 4.9347 9.422 7.1084 2.7907 1.489 5.4968 3.5721 8.8294 3.2694 3.0154 0.48004 6.1639 0.46161 9.143 1.1105 4.2442 2.5465 8.7637 4.6404 12.866 7.3923 1.4962 4.7931 2.9948 9.654 4.1162 14.538-1.2993 2.938-3.8342 4.456-6.9368 3.8812-14.564-0.0074-29.128 0.01468-43.692-0.01103-2.9286-1.439-6.4144-3.3351-6.736-6.9612-2.351-8.1227-4.6184-16.273-6.9894-24.388 0.39871-1.3114 3.3912 1.4476 4.8679 2.1089 2.8945 2.0657 6.7062 3.1125 8.4364 6.4612 1.9935 2.5875 3.609 5.5321 5.9294 7.8131 4.2593 2.3841 8.2743 5.2671 12.705 7.2951 3.8605 1.2797 6.4315-2.5375 7.5868-5.7286 0.90269-4.3303-3.8691-6.2584-6.9184-7.9655-2.8512-1.479-5.5533-3.4067-8.5631-4.4561-3.9073-0.53257-7.8948-0.66257-11.748-1.2715-4.32-2.5743-8.895-4.6821-13.085-7.4572-1.5468-4.7457-2.844-9.6175-4.1835-14.437 1.3089-1.65 2.4762-4.5124 5.0337-3.9728h45.231c2.4041 0.5425 4.4609 2.5012 6.3211 4.0842 2.6561 9.2989 5.4323 18.583 7.9146 27.919z" />
</svg>
