<svg viewBox="0 0 100 100" xmlns="http://www.w3.org/2000/svg">
    <g>
        <path d="M366.81 525.25l1.02-267.2s-17.327-13.152-24.923-33.523c-7.596-20.371-8.265-65.698-6.602-88.427 1.664-22.73 10.52-46.904 10.52-46.904l25.154-9.946 25.155 9.905s8.856 24.174 10.52 46.904c1.663 22.73.994 68.056-6.602 88.427-7.596 20.371-24.923 33.523-24.923 33.523l1.02 267.2.125 1.935c-.125-1.935-10.339-.04-10.339-.04z" transform="matrix(.18449 -.17063 .17063 .1845 -69.681 59.18)"/>
        <path d="M366.81 525.25l1.02-267.2s-17.327-13.152-24.923-33.523c-7.596-20.371-8.265-65.698-6.602-88.427 1.664-22.73 10.52-46.904 10.52-46.904l25.154-9.946 25.155 9.905s8.856 24.174 10.52 46.904c1.663 22.73.994 68.056-6.602 88.427-7.596 20.371-24.923 33.523-24.923 33.523l1.02 267.2.125 1.935c-.125-1.935-10.339-.04-10.339-.04z" transform="matrix(-.18449 -.17063 -.17063 .1845 169.03 59.18)"/>
    </g>
</svg>
