<?xml version="1.0" standalone="no"?>
<!DOCTYPE svg PUBLIC "-//W3C//DTD SVG 20010904//EN"
 "http://www.w3.org/TR/2001/REC-SVG-20010904/DTD/svg10.dtd">
<svg version="1.0" xmlns="http://www.w3.org/2000/svg"
 width="700.000000pt" height="700.000000pt" viewBox="0 0 700.000000 700.000000"
 preserveAspectRatio="xMidYMid meet">
<metadata>
Created by potrace 1.11, written by Peter Selinger 2001-2013
</metadata>
<g transform="translate(0.000000,700.000000) scale(0.100000,-0.100000)"
fill="#000000" stroke="none">
<path d="M1498 6170 c-658 -3 -1198 -7 -1200 -10 -2 -3 -45 -52 -94 -110 -112
-131 -171 -205 -189 -240 -15 -29 -17 -19 60 -300 20 -74 38 -142 40 -150 5
-21 74 -269 86 -305 11 -35 158 -552 164 -575 2 -8 116 -411 255 -895 138
-484 309 -1082 380 -1330 70 -247 165 -577 209 -733 l82 -282 46 -43 c56 -51
179 -146 253 -195 30 -20 60 -40 65 -45 117 -93 164 -116 249 -124 34 -3 1112
-6 2397 -6 l2337 -1 56 34 c72 44 176 145 221 215 39 61 78 135 71 135 -3 0 0
13 5 29 9 26 -36 192 -341 1263 -194 678 -356 1247 -361 1263 -4 17 -17 63
-29 102 -32 112 -59 206 -80 280 -10 38 -30 109 -45 158 -15 50 -28 97 -30
105 -2 8 -17 62 -34 120 -16 58 -102 357 -190 664 -132 461 -165 566 -189 595
-29 37 -76 74 -240 191 -188 134 -244 170 -283 180 -48 13 -1799 18 -3671 10z
m3165 -840 c72 -27 186 -103 293 -193 l81 -69 57 -201 c32 -111 76 -262 98
-335 21 -72 41 -140 43 -150 2 -9 18 -64 35 -122 17 -58 33 -112 35 -120 1 -8
26 -96 55 -195 92 -320 229 -819 225 -823 -5 -5 -189 91 -193 101 -2 4 -8 7
-12 7 -5 0 -118 67 -252 149 -134 81 -259 156 -278 166 -39 20 -38 19 -105
100 -28 33 -52 62 -56 65 -3 3 -43 59 -90 125 -47 66 -133 188 -192 271 l-108
151 -112 75 c-123 82 -419 261 -587 356 -19 10 -73 43 -120 71 -103 63 -155
79 -239 76 -212 -10 -421 -258 -423 -501 -1 -90 29 -151 117 -240 69 -70 124
-107 280 -189 163 -85 219 -116 335 -185 152 -90 296 -157 370 -174 36 -8 108
-17 160 -20 52 -3 104 -7 115 -9 11 -3 58 -8 105 -12 47 -3 101 -8 120 -10 19
-2 64 -6 100 -10 103 -10 234 -35 250 -49 13 -12 179 -105 365 -206 66 -36
329 -184 360 -203 20 -12 138 -88 143 -93 3 -2 25 -73 114 -364 59 -196 74
-251 133 -479 l45 -173 -27 -51 c-33 -59 -102 -134 -158 -170 -45 -29 -134
-57 -180 -56 -16 0 -741 1 -1610 3 l-1580 3 -84 47 c-189 107 -273 180 -330
286 -26 50 -33 69 -46 139 -2 13 -43 159 -91 325 -47 166 -88 308 -90 316 -2
8 -19 69 -38 135 -102 355 -135 472 -141 495 0 3 -11 39 -23 80 -111 372 -111
374 -95 387 24 19 78 -4 218 -96 56 -36 127 -82 159 -101 32 -19 73 -45 92
-57 19 -13 40 -23 46 -23 6 0 19 -6 27 -14 9 -7 36 -24 61 -37 71 -38 179
-117 221 -162 22 -23 69 -85 105 -137 190 -277 258 -371 327 -451 66 -77 72
-81 352 -249 23 -14 119 -71 213 -128 184 -111 356 -202 412 -221 88 -28 177
-16 256 34 96 61 158 139 227 282 38 80 42 95 41 163 -1 165 -97 270 -394 430
-74 40 -213 118 -309 173 -263 151 -356 190 -476 203 -101 10 -112 11 -200 18
-44 4 -96 9 -115 11 -31 4 -68 8 -205 19 -16 2 -48 6 -70 9 -22 4 -61 9 -87
12 -35 4 -102 36 -265 126 -120 66 -288 159 -373 206 -85 47 -184 105 -220
128 -36 23 -75 47 -87 53 -29 16 -80 175 -237 739 -89 318 -86 281 -30 360
100 142 144 184 209 201 14 4 755 6 1647 6 l1623 -2 58 -22z"/>
</g>
</svg>
