<?xml version="1.0" standalone="no"?>
<!DOCTYPE svg PUBLIC "-//W3C//DTD SVG 20010904//EN"
 "http://www.w3.org/TR/2001/REC-SVG-20010904/DTD/svg10.dtd">
<svg version="1.0" xmlns="http://www.w3.org/2000/svg"
 width="700.000000pt" height="700.000000pt" viewBox="0 0 700.000000 700.000000"
 preserveAspectRatio="xMidYMid meet">
<metadata>
Created by potrace 1.11, written by Peter Selinger 2001-2013
</metadata>
<g transform="translate(0.000000,700.000000) scale(0.100000,-0.100000)"
fill="#000000" stroke="none">
<path d="M1089 6363 l-217 -85 -102 -213 c-79 -164 -101 -218 -95 -236 14 -46
181 -365 245 -467 138 -220 332 -453 620 -742 241 -242 431 -403 608 -518 153
-99 375 -165 606 -181 78 -5 155 -9 171 -8 28 2 50 -18 238 -223 114 -124 207
-227 207 -230 -1 -3 -607 -655 -1348 -1450 l-1347 -1444 63 -65 63 -65 25 25
c14 14 613 666 1332 1449 719 783 1312 1425 1317 1427 6 1 610 -651 1344
-1451 l1334 -1454 63 66 64 66 -24 26 c-13 14 -620 666 -1349 1448 l-1326
1424 211 229 212 230 40 -6 c50 -8 264 11 361 31 327 68 552 219 1010 678 416
417 610 676 805 1077 l70 145 -104 216 c-57 118 -110 217 -117 220 -8 3 -108
42 -223 87 l-209 82 -116 -67 c-133 -76 -332 -210 -429 -288 -254 -202 -665
-648 -899 -976 -136 -191 -202 -311 -246 -445 -53 -162 -61 -215 -63 -448 l-1
-218 -199 -214 c-109 -118 -202 -215 -206 -215 -15 0 -419 442 -415 454 14 36
18 223 7 331 -18 182 -56 329 -120 456 -163 325 -727 988 -1077 1267 -152 120
-532 365 -561 361 -4 -1 -104 -39 -223 -86z"/>
</g>
</svg>
